# xmcd CD database file
# Copyright (C) 1997 Ti Kan
#
# Track frame offsets:
#  150
#  14062
#  31067
#  53077
#  62427
#  80952
#  116937
#  136487
#  144937
#  162775
#  171350
#  191762
#  217712
#  249012
#  268375
#  279845
#  292512
#  305087
#  327740
#
# Disc length: 4485 seconds
#
# Revision: 1
# Processed by: cddbd v1.4b41PL1 Copyright (c) Steve Scherf et al.
# Submitted via: CDWizzard Release:4.32
#
DISCID=17118313
DTITLE=Ceremonial Brass: US Air Force Band - Tower Music
DYEAR=1900
DGENRE=
TTITLE0=The United States Air Force Band Fanfare
TTITLE1=Sonata No. 12
TTITLE2=Tower Music
TTITLE3=fairfield Fanfare
TTITLE4=Canzona duodecimi toni
TTITLE5=Funeral March
TTITLE6=March fro "A Moorside Suite"
TTITLE7=Little Suite for Brass: Prelude
TTITLE8=Siciliano
TTITLE9=Rondo
TTITLE10=Presto Barbaro
TTITLE11=Chrome Templates: Moderato Expressivo
TTITLE12=Adante
TTITLE13=Rondo Caprice
TTITLE14=Nearer My God To Thee
TTITLE15=Amazing Grace
TTITLE16=Honor With Dignity
TTITLE17=Battle Hymn
TTITLE18=Rolling Thunder
EXTD=
EXTT0=
EXTT1=
EXTT2=
EXTT3=
EXTT4=
EXTT5=
EXTT6=
EXTT7=
EXTT8=
EXTT9=
EXTT10=
EXTT11=
EXTT12=
EXTT13=
EXTT14=
EXTT15=
EXTT16=
EXTT17=
EXTT18=
PLAYORDER=
